<?xml version="1.0" encoding="utf-8"?>
<!-- Generator: Adobe Illustrator 26.0.3, SVG Export Plug-In . SVG Version: 6.00 Build 0)  -->
<svg version="1.1" id="Слой_1" xmlns="http://www.w3.org/2000/svg" xmlns:xlink="http://www.w3.org/1999/xlink" x="0px" y="0px"
	 viewBox="0 0 70 67" style="enable-background:new 0 0 70 67;" xml:space="preserve">
<style type="text/css">
	.st0{fill:#E3B873;}
	.st1{fill:none;stroke:#FFFFFF;stroke-width:8;}
	.st2{fill:#FFFFFF;}
</style>
<g>
	<path class="st0" d="M37.9,12.1L37.9,12.1c11.5,0,20.9,9.3,20.9,20.9v0c0,11.5-9.3,20.9-20.9,20.9h0C26.3,53.9,17,44.5,17,33v0
		C17,21.5,26.3,12.1,37.9,12.1z"/>
	<path class="st1" d="M37.9,8.1L37.9,8.1c13.7,0,24.9,11.1,24.9,24.9v0c0,13.7-11.1,24.9-24.9,24.9h0C24.1,57.9,13,46.7,13,33v0
		C13,19.2,24.1,8.1,37.9,8.1z"/>
</g>
<path class="st2" d="M32.2,38.2c-1,0-1.9-0.3-2.6-0.8s-1.4-1.3-1.9-2.2c-0.5-1-0.7-2.2-0.7-3.5s0.2-2.5,0.7-3.5
	c0.5-1,1.1-1.8,1.9-2.3c0.8-0.5,1.7-0.8,2.6-0.8s1.9,0.3,2.6,0.8c0.8,0.5,1.4,1.3,1.9,2.3c0.5,1,0.7,2.2,0.7,3.5s-0.2,2.5-0.7,3.5
	c-0.5,1-1.1,1.7-1.9,2.2S33.2,38.2,32.2,38.2z M32.2,37.9c1.4,0,2.1-2.1,2.1-6.2s-0.7-6.2-2.1-6.2s-2.1,2.1-2.1,6.2
	S30.9,37.9,32.2,37.9z M42.6,38.2c-0.8,0-1.5-0.1-2.1-0.3c-0.6-0.2-1-0.5-1.3-0.9c-0.3-0.4-0.4-0.7-0.4-1.1c0-0.4,0.1-0.7,0.4-1
	c0.3-0.3,0.6-0.4,1-0.4c0.1,0,0.2,0,0.3,0c0.1,0,0.2,0,0.2,0l0.2,0v2.9c0,0,0.1,0,0.4,0.1c0.3,0.1,0.7,0.1,1.1,0.1
	c0.8,0,1.5-0.3,1.9-0.8c0.5-0.5,0.7-1.3,0.7-2.3c0-1-0.2-1.8-0.7-2.4c-0.4-0.5-1-0.8-1.8-0.8h-0.9v-0.5h0.9c0.5,0,1-0.2,1.4-0.7
	s0.5-1.2,0.5-2.1s-0.2-1.6-0.6-2.1c-0.4-0.5-0.8-0.7-1.4-0.7c-0.3,0-0.6,0-0.9,0.1c0,0-0.2,0.1-0.4,0.1v2.9l-0.2,0.1
	c-0.2,0-0.4,0-0.5,0c-0.4,0-0.7-0.1-1-0.4c-0.2-0.3-0.4-0.6-0.4-1c0-0.4,0.1-0.7,0.4-1.1c0.3-0.4,0.7-0.7,1.3-0.9
	c0.6-0.2,1.2-0.4,2-0.4c1,0,1.9,0.1,2.6,0.5c0.7,0.3,1.2,0.7,1.6,1.2c0.4,0.5,0.5,1,0.5,1.6c0,0.7-0.2,1.2-0.5,1.6
	c-0.3,0.4-0.8,0.7-1.4,1c-0.6,0.2-1.2,0.3-1.9,0.4v0.1c0.8,0,1.5,0.2,2.2,0.4c1.4,0.6,2.2,1.5,2.2,2.9c0,1.1-0.4,1.9-1.3,2.6
	C45.7,37.9,44.4,38.2,42.6,38.2z"/>
</svg>
