<?xml version="1.0" encoding="utf-8"?>
<!-- Generator: Adobe Illustrator 26.0.3, SVG Export Plug-In . SVG Version: 6.00 Build 0)  -->
<svg version="1.1" id="Слой_1" xmlns="http://www.w3.org/2000/svg" xmlns:xlink="http://www.w3.org/1999/xlink" x="0px" y="0px"
	 viewBox="0 0 60 59.5" style="enable-background:new 0 0 60 59.5;" xml:space="preserve">
<style type="text/css">
	.st0{fill:#E3B873;}
	.st1{fill:none;stroke:#FFFFFF;stroke-width:8;}
	.st2{fill:#FFFFFF;}
</style>
<g>
	<path class="st0" d="M28.8,9.2L28.8,9.2c11.5,0,20.9,9.3,20.9,20.9v0c0,11.5-9.3,20.9-20.9,20.9h0C17.3,50.9,7.9,41.6,7.9,30v0
		C7.9,18.5,17.3,9.2,28.8,9.2z"/>
	<path class="st1" d="M28.8,5.2L28.8,5.2c13.7,0,24.9,11.1,24.9,24.9v0c0,13.7-11.1,24.9-24.9,24.9h0C15.1,54.9,3.9,43.8,3.9,30v0
		C3.9,16.3,15.1,5.2,28.8,5.2z"/>
</g>
<path class="st2" d="M25.5,36.2c-1,0-1.9-0.3-2.6-0.8c-0.8-0.5-1.4-1.3-1.9-2.2c-0.5-1-0.7-2.2-0.7-3.5s0.2-2.5,0.7-3.5
	c0.5-1,1.1-1.8,1.9-2.3s1.7-0.8,2.6-0.8s1.9,0.3,2.6,0.8s1.4,1.3,1.9,2.3c0.5,1,0.7,2.2,0.7,3.5s-0.2,2.6-0.7,3.5
	c-0.5,1-1.1,1.7-1.9,2.2C27.4,36,26.5,36.2,25.5,36.2z M25.5,35.8c1.4,0,2.1-2.1,2.1-6.2s-0.7-6.2-2.1-6.2s-2.1,2.1-2.1,6.2
	S24.1,35.8,25.5,35.8z M32.8,35.9v-0.3l1.3-0.4v-9.9l-1.9,1.3l-0.4-0.5l3.3-3H37v12l1.3,0.4v0.3H32.8z"/>
</svg>
