<?xml version="1.0" encoding="utf-8"?>
<!-- Generator: Adobe Illustrator 26.0.3, SVG Export Plug-In . SVG Version: 6.00 Build 0)  -->
<svg version="1.1" id="Слой_1" xmlns="http://www.w3.org/2000/svg" xmlns:xlink="http://www.w3.org/1999/xlink" x="0px" y="0px"
	 viewBox="0 0 67 68" style="enable-background:new 0 0 67 68;" xml:space="preserve">
<style type="text/css">
	.st0{fill:#E3B873;}
	.st1{fill:none;stroke:#FFFFFF;stroke-width:8;}
	.st2{fill:#FFFFFF;}
</style>
<g>
	<path class="st0" d="M33.9,11.1L33.9,11.1c11.5,0,20.9,9.3,20.9,20.9v0c0,11.5-9.3,20.9-20.9,20.9h0C22.3,52.9,13,43.5,13,32v0
		C13,20.5,22.3,11.1,33.9,11.1z"/>
	<path class="st1" d="M33.9,7.1L33.9,7.1c13.7,0,24.9,11.1,24.9,24.9v0c0,13.7-11.1,24.9-24.9,24.9h0C20.1,56.9,9,45.7,9,32v0
		C9,18.2,20.1,7.1,33.9,7.1z"/>
</g>
<path class="st2" d="M28.1,38.2c-1,0-1.9-0.3-2.6-0.8s-1.4-1.3-1.9-2.2c-0.5-1-0.7-2.2-0.7-3.5s0.2-2.5,0.7-3.5
	c0.5-1,1.1-1.8,1.9-2.3s1.7-0.8,2.6-0.8s1.9,0.3,2.6,0.8s1.4,1.3,1.9,2.3c0.5,1,0.7,2.2,0.7,3.5s-0.2,2.5-0.7,3.5
	c-0.5,1-1.1,1.7-1.9,2.2S29.1,38.2,28.1,38.2z M28.1,37.9c1.4,0,2.1-2.1,2.1-6.2s-0.7-6.2-2.1-6.2c-1.4,0-2.1,2.1-2.1,6.2
	S26.7,37.9,28.1,37.9z M38.4,38v-0.3l1.3-0.4v-2.7h-5.1l-0.4-0.5l6.8-8.9h1.7v8.6h1.9v0.8h-1.9v2.7l1.3,0.4V38H38.4z M35.1,33.8h4.5
	v-5.9L35.1,33.8z"/>
</svg>
